PathFileType	4	(X/Y/Z)	Patient4_TMGait_0pt8_01_left_22.trc.trc
DataRate	CameraRate	NumFrames	NumMarkers	Units	OrigDataRate	OrigDataStartFrame	OrigNumFrames
86.956521739130	86.956521739130	6	33	mm	86.956521739130	124	       141
Frame#	Time	Sacral			L.Shoulder			Chest			R.Shoulder			Neck			R.ASIS			L.ASIS			R.Thigh.Superior			R.Thigh.Lateral			R.Thigh.Inferior			R.Patella			L.Thigh.Superior			L.Thigh.Lateral			L.Thigh.Inferior			L.Patella			L.Shank.Superior			L.Shank.Lateral			L.Shank.Inferior			R.Shank.Superior			R.Shank.Lateral			R.Shank.Inferior			R.Heel			R.Midfoot.Superior			R.Midfoot.Lateral			R.Toe			L.Heel			L.Midfoot.Lateral			L.Midfoot.Superior			L.Toe			L.Elbow			L.Wrist			R.Elbow			R.Wrist			
		X1	Y1	Z1	X2	Y2	Z2	X3	Y3	Z3	X4	Y4	Z4	X5	Y5	Z5	X6	Y6	Z6	X7	Y7	Z7	X8	Y8	Z8	X9	Y9	Z9	X10	Y10	Z10	X11	Y11	Z11	X12	Y12	Z12	X13	Y13	Z13	X14	Y14	Z14	X15	Y15	Z15	X16	Y16	Z16	X17	Y17	Z17	X18	Y18	Z18	X19	Y19	Z19	X20	Y20	Z20	X21	Y21	Z21	X22	Y22	Z22	X23	Y23	Z23	X24	Y24	Z24	X25	Y25	Z25	X26	Y26	Z26	X27	Y27	Z27	X28	Y28	Z28	X29	Y29	Z29	X30	Y30	Z30	X31	Y31	Z31	X32	Y32	Z32	X33	Y33	Z33	

124	25.324500000000	886.989657999972	998.525892182452	504.649658487235	1036.108783421538	1423.196614534034	314.449534850947	1161.384730879194	1353.873918244786	459.312926045734	1101.230329741105	1426.250523722217	642.686508893518	1037.564753694918	1480.307347050574	472.678356032695	1116.211551038085	925.259111395193	602.381417899716	1086.003505103330	947.280025571368	328.066885637350	1096.865002869592	710.220991400453	579.284959001548	981.314940587373	625.163821666338	638.674727651001	1036.252605622703	554.400269149986	560.248625811737	1008.976399397488	470.622875424935	563.120687866975	1162.914807228107	766.890326104148	364.459230991667	1112.316298998167	632.900620117191	292.845902596676	1218.057824155652	578.646933278376	352.631076513291	1243.306325268058	514.653716521557	353.057012396833	1232.117327224865	441.791105346586	344.995495881847	1174.171160519654	305.717583647555	303.008782283007	1270.136161131467	216.362601124236	358.774347078526	963.555942617869	391.337826512377	568.825356495426	871.978208030121	303.039450627197	628.568024246542	895.767300421035	202.292943893186	564.257293011826	739.799592843441	50.018725015619	523.369277506990	909.480324086610	96.899041523132	571.262340354865	816.984122420131	38.813257252413	602.596974275647	1025.376655521819	39.305947349380	608.888040236440	1199.596402381486	40.489026121164	408.613734191301	1270.581556990390	42.130635068195	325.599897359465	1340.962056556685	119.290928630301	341.406993645206	1473.547566435610	89.086719688817	311.645677504215	875.591774833895	1109.060225033739	234.969842892291	801.428645647961	862.071219465527	256.756739721483	1288.279195487193	1145.172364078816	746.659471856675	1506.017463443020	1250.648991945476	678.774710460931	
125	25.336000000000	888.265385157028	997.277750745776	501.599416600839	1036.681602277998	1421.902073920135	312.352056880020	1161.648870439686	1353.129111120160	457.686480855422	1100.505026290543	1425.282309273149	640.888612886639	1037.489040375664	1479.155061356924	470.598447232048	1116.870800495140	923.950816622082	601.102236065530	1088.546316260750	946.041604334445	326.520347947007	1096.852502850534	708.629458845504	578.693968453006	980.338593964185	624.164351904815	637.196082901762	1035.746406502808	552.758110642334	559.447438023474	1007.684636150446	468.269693929346	562.171047569207	1165.703502549386	765.567642389701	363.952635525087	1114.122683339325	631.409662248784	293.416341755640	1219.464666676144	576.998646550633	353.684782046948	1243.140030297093	511.477948182046	355.035274899201	1231.085527127157	438.196857117369	346.773007385525	1170.328318585532	303.250866787306	304.768516826198	1263.548047165574	211.823543796535	361.811598038574	960.618923636075	389.769740983903	567.921193856663	867.135834364083	303.449816285142	627.694247405668	889.087439301905	202.006726650838	564.039750885369	730.627583673367	51.560546303829	523.708087484937	900.709413432986	97.052770167724	571.436179485602	807.833288624782	39.420358229208	602.767302945946	1016.215367155574	39.029407800266	608.992576511721	1187.496082101285	38.878547163535	411.407493403725	1258.051900782012	39.330818933652	327.872114296616	1331.598661190418	113.157004058610	345.042099521788	1463.213883851818	77.972620593246	314.000861409942	876.046695333508	1108.021180743255	233.656432277093	799.638909570427	861.814265657389	255.665554904674	1287.991887566342	1144.681498769962	745.304544714259	1503.683330004075	1253.614396476566	677.144157380869	
126	25.347500000000	889.539684452866	996.196416045315	498.503263188659	1037.450042155432	1420.678049166750	310.097764144446	1161.991841903103	1352.554391530285	456.045696267317	1099.756629176559	1424.539034644667	639.044916319125	1037.506380727889	1478.222329728621	468.346471311878	1117.577766936094	922.790873526613	599.768972692099	1091.104490709423	945.087526642783	325.068807132927	1097.144449614524	707.203762008870	577.902328050683	979.872250144301	623.142740441887	635.536860643970	1035.888381145999	551.161399711573	558.448418964876	1007.165239530349	465.735971156000	561.170575993256	1168.329588146016	764.319813212014	363.480073478030	1115.917613602822	630.365308640991	293.528931477333	1220.650323903163	575.613286807060	354.630761477995	1242.767917160563	508.784298687954	356.728294151836	1229.986445300715	435.179225794738	348.128924113822	1166.899658650401	301.319149776905	305.740936811604	1257.378749212306	208.054298474374	364.223917321944	958.225039463748	388.179852314405	566.962725735508	862.687566686269	304.080789986023	626.727316658192	882.702244696745	201.892185510749	563.815307521666	721.517580689030	53.588931865065	524.058095543196	892.121578382232	97.234589779530	571.648690177098	798.709381885434	40.270765731236	602.947877712267	1007.035170733104	38.752015666021	609.075420065798	1176.072745034255	37.795786009250	413.382419689397	1246.401633715837	37.290904872326	329.511675055940	1322.723769508714	108.058391621918	348.142270541302	1453.454702052823	68.462205190569	316.215622737206	877.360611663901	1106.552016255123	232.069009630065	799.175132375409	860.985940031126	254.009994265318	1286.858832497956	1143.659852353964	744.093545970630	1501.049421296513	1255.152587635265	675.750990355511	
127	25.359000000000	890.750517576108	995.349878450935	495.421300851243	1038.414118703304	1419.604948216293	307.723571101741	1162.413536494814	1352.190249191841	454.414090439261	1099.019665882234	1424.092588958849	637.168474827837	1037.620272528101	1477.577400582711	465.950030502766	1118.281738015324	921.850024244469	598.355751563394	1093.577103301405	944.485044994435	323.700099139354	1097.773000376875	706.022934843563	576.836835621119	980.048029403862	622.118940088870	633.716072659572	1036.810965884888	549.662444759107	557.241160823180	1007.583094430932	463.054880870521	560.180040338534	1170.699547875243	763.279268637699	363.003470968833	1117.675571112973	629.845802111533	293.125913871277	1221.601545394479	574.599859767739	355.327282045047	1242.242141098548	506.696426146736	357.953732483716	1228.843573618046	432.823874510243	348.975374481721	1163.874388215217	299.999737379745	305.895966141879	1251.635485876242	205.134790177814	365.938446934299	956.512815831400	386.612809314412	566.003063145279	858.764647229834	305.017027914381	625.703851149983	876.728331271786	202.034390580263	563.605657102845	712.551222697769	56.287149047811	524.406759223068	883.801749206002	97.466802299856	571.909979701571	789.657229361995	41.477178669401	603.124661738692	997.832684830674	38.468214749134	609.129620635474	1165.465640648318	37.199559819078	414.593924803561	1235.734967502035	35.977279784408	330.544335177898	1314.324897384450	104.127276736675	350.587087320828	1444.290455535980	60.907012519889	318.141959128288	879.532211543642	1104.741562697484	230.190311144564	800.102875243020	859.629502221181	251.771465606409	1284.841890128738	1142.136678439970	743.035060464822	1498.136610098972	1255.252685601145	674.583395495410	
128	25.370500000000	891.844864492639	994.796343422757	492.399748708632	1039.557457194510	1418.763648708844	305.273308727386	1162.903771362533	1352.070246326040	452.811893151755	1098.321059629635	1424.002527225262	635.269534390156	1037.821233453735	1477.274650020287	463.444658403643	1118.926383245658	921.194158519748	596.836945694912	1095.873402192096	944.283184945576	322.377774755816	1098.776179341609	705.163710529550	575.451438239578	980.996533305936	621.115277675667	631.770024032464	1038.657785167813	548.314172746992	555.848567704362	1009.111076002486	460.275458644430	559.285426808199	1172.752055297681	762.569739908743	362.451552780081	1119.348900239357	629.877912470208	292.204040527919	1222.294961260099	574.009245340147	355.642413660842	1241.577780456030	505.247345187679	358.585407455864	1227.627660731341	431.128869037013	349.282961919651	1161.123925405876	299.295867657949	305.297919223028	1246.203974675370	203.040643414651	366.959759970480	955.646418495777	385.117481321337	565.108736143353	855.526737151417	306.344633138031	624.666790203199	871.308637422368	202.526591639169	563.437066051115	703.848491832500	59.865299069570	524.735281962284	875.853435892962	97.791748822299	572.230043345654	780.746043952767	43.183559626321	603.279972056555	988.612244618694	38.169558631878	609.151017077414	1155.639875791820	36.997478499630	415.156894463809	1225.969058013141	35.281101435262	331.044219374491	1306.272592667863	101.351934711853	352.332891345303	1435.611386860830	55.403359353244	319.672537864553	882.555696227904	1102.691750749708	228.009909900263	802.494420742006	857.807370924326	248.949019450733	1281.896238698228	1140.164484121974	742.132578772699	1494.946055910150	1253.892787804475	673.630461370451	
129	25.382000000000	892.785311298328	994.575479747530	489.464446635658	1040.847898421259	1418.225366225330	302.793149010900	1163.441142910330	1352.217360159926	451.255152435730	1097.671624079412	1424.305663934214	633.355895931690	1038.086672816892	1477.346571843009	460.871068114401	1119.457327735839	920.874446578577	595.193189308759	1097.924908630304	944.504949347534	321.049360484815	1100.196198968841	704.692224478991	573.739678801683	982.833494958853	620.155367140905	629.751022128303	1041.569799945783	547.167271156380	554.327706127190	1011.914268355992	457.462062331940	558.586153890301	1174.458115122646	762.271645707932	361.723537760719	1120.837654005765	630.418518980544	290.819201515569	1222.674547956060	573.813480214898	355.472682638371	1240.731734402449	504.377470881265	358.576056134870	1226.250783180393	430.015013025152	349.084213429577	1158.437423274068	299.137609347370	304.095418281468	1240.897266362864	201.665806246956	367.366297307269	955.804242054697	383.744228191606	564.348871348925	853.155825387094	308.143375677288	623.660022709541	866.606505826232	203.465184584012	563.335688479452	695.571037904861	64.549080549579	525.017831240509	868.395611260222	98.277445620634	572.614878853858	772.073691621337	45.563520268114	603.392500327839	979.390668545441	37.844613468336	609.139453190894	1146.445947065144	37.072649037175	415.221372006546	1216.905046055328	35.053071363412	331.119571728161	1298.386678867963	99.606442687574	353.415877123627	1427.242422687430	51.820017626162	320.761456359620	886.418021786162	1100.510136107648	225.522240577156	806.429425050673	855.596634515149	245.559571286922	1277.971400775373	1137.815990420770	741.382624709401	1491.454738435158	1251.038038898784	672.884311741640	
